<svg xmlns="http://www.w3.org/2000/svg" viewBox="0 0 1200 630" fill="none">
  <defs>
    <linearGradient id="bgGrad" x1="0%" y1="0%" x2="100%" y2="100%">
      <stop offset="0%" style="stop-color:#0F0A1F"/>
      <stop offset="50%" style="stop-color:#1A1030"/>
      <stop offset="100%" style="stop-color:#0F0A1F"/>
    </linearGradient>
    <linearGradient id="logoGrad" x1="0%" y1="0%" x2="100%" y2="100%">
      <stop offset="0%" style="stop-color:#7C3AED"/>
      <stop offset="100%" style="stop-color:#4F46E5"/>
    </linearGradient>
    <linearGradient id="starGrad" x1="0%" y1="0%" x2="100%" y2="100%">
      <stop offset="0%" style="stop-color:#F59E0B"/>
      <stop offset="100%" style="stop-color:#FBBF24"/>
    </linearGradient>
    <linearGradient id="textGrad" x1="0%" y1="0%" x2="100%" y2="0%">
      <stop offset="0%" style="stop-color:#7C3AED"/>
      <stop offset="100%" style="stop-color:#EC4899"/>
    </linearGradient>
  </defs>

  <!-- Background -->
  <rect width="1200" height="630" fill="url(#bgGrad)"/>

  <!-- Decorative stars -->
  <circle cx="100" cy="80" r="3" fill="rgba(255,255,255,0.6)"/>
  <circle cx="200" cy="150" r="2" fill="rgba(255,255,255,0.4)"/>
  <circle cx="1050" cy="100" r="4" fill="rgba(255,255,255,0.7)"/>
  <circle cx="1100" cy="200" r="2" fill="rgba(255,255,255,0.5)"/>
  <circle cx="150" cy="500" r="3" fill="rgba(255,255,255,0.5)"/>
  <circle cx="1000" cy="520" r="2" fill="rgba(255,255,255,0.4)"/>
  <circle cx="300" cy="100" r="2" fill="rgba(255,255,255,0.3)"/>
  <circle cx="900" cy="150" r="3" fill="rgba(255,255,255,0.5)"/>
  <circle cx="80" cy="300" r="2" fill="rgba(255,255,255,0.4)"/>
  <circle cx="1120" cy="400" r="3" fill="rgba(255,255,255,0.6)"/>

  <!-- Logo circle -->
  <circle cx="600" cy="220" r="100" fill="url(#logoGrad)"/>

  <!-- Star in logo -->
  <path d="M600 140 L615 195 L675 195 L628 230 L645 285 L600 255 L555 285 L572 230 L525 195 L585 195 Z" fill="url(#starGrad)"/>

  <!-- A in star -->
  <text x="600" y="235" font-family="Arial, sans-serif" font-size="40" font-weight="bold" fill="white" text-anchor="middle">A</text>

  <!-- Brand name -->
  <text x="600" y="400" font-family="Arial, sans-serif" font-size="72" font-weight="bold" fill="url(#textGrad)" text-anchor="middle">AstraVaani</text>

  <!-- Tagline -->
  <text x="600" y="460" font-family="Arial, sans-serif" font-size="28" fill="rgba(255,255,255,0.8)" text-anchor="middle">Vedic Astrology &amp; Numerology Guidance</text>

  <!-- Subtitle -->
  <text x="600" y="520" font-family="Arial, sans-serif" font-size="20" fill="rgba(255,255,255,0.5)" text-anchor="middle">AI-Powered • Mathematically Computed • No Predictions</text>
</svg>
